<?xml version="1.0" encoding="UTF-8" standalone="no"?>
<!DOCTYPE svg PUBLIC "-//W3C//DTD SVG 1.1//EN"
 "http://www.w3.org/Graphics/SVG/1.1/DTD/svg11.dtd">
<!-- Generated by graphviz version 2.47.2 (20210527.0053)
 -->
<!-- Pages: 1 -->
<svg width="135pt" height="832pt"
 viewBox="0.00 0.00 135.00 831.80" xmlns="http://www.w3.org/2000/svg" xmlns:xlink="http://www.w3.org/1999/xlink">
<g id="graph0" class="graph" transform="scale(1 1) rotate(0) translate(4 827.8)">
<polygon fill="white" stroke="transparent" points="-4,4 -4,-827.8 131,-827.8 131,4 -4,4"/>
<!-- fake -->
<g id="node1" class="node">
<title>fake</title>
</g>
<!-- s1 -->
<g id="node2" class="node">
<title>s1</title>
<ellipse fill="none" stroke="black" cx="62" cy="-732.8" rx="27" ry="18"/>
<text text-anchor="middle" x="62" y="-729.1" font-family="Times New Roman,serif" font-size="14.00">s1</text>
</g>
<!-- fake&#45;&gt;s1 -->
<g id="edge1" class="edge">
<title>fake&#45;&gt;s1</title>
<path fill="none" stroke="black" stroke-width="2" d="M62,-787.61C62,-779.59 62,-769.84 62,-760.86"/>
<polygon fill="black" stroke="black" stroke-width="2" points="65.5,-760.82 62,-750.82 58.5,-760.82 65.5,-760.82"/>
</g>
<!-- s2 -->
<g id="node10" class="node">
<title>s2</title>
<ellipse fill="none" stroke="black" cx="62" cy="-645.8" rx="27" ry="18"/>
<text text-anchor="middle" x="62" y="-642.1" font-family="Times New Roman,serif" font-size="14.00">s2</text>
</g>
<!-- s1&#45;&gt;s2 -->
<g id="edge5" class="edge">
<title>s1&#45;&gt;s2</title>
<path fill="none" stroke="black" d="M53.98,-715.27C50.22,-705.6 46.97,-693.1 49,-681.8 49.53,-678.87 50.28,-675.86 51.17,-672.9"/>
<polygon fill="black" stroke="black" points="54.57,-673.79 54.54,-663.19 47.95,-671.49 54.57,-673.79"/>
<text text-anchor="middle" x="53" y="-685.6" font-family="Times New Roman,serif" font-size="14.00">b</text>
</g>
<!-- s1&#45;&gt;s2 -->
<g id="edge9" class="edge">
<title>s1&#45;&gt;s2</title>
<path fill="none" stroke="black" d="M62,-714.59C62,-702.96 62,-687.34 62,-674.03"/>
<polygon fill="black" stroke="black" points="65.5,-673.97 62,-663.97 58.5,-673.97 65.5,-673.97"/>
<text text-anchor="middle" x="65.5" y="-685.6" font-family="Times New Roman,serif" font-size="14.00">a</text>
</g>
<!-- s10 -->
<g id="node3" class="node">
<title>s10</title>
<ellipse fill="none" stroke="black" cx="28" cy="-210.8" rx="27" ry="18"/>
<text text-anchor="middle" x="28" y="-207.1" font-family="Times New Roman,serif" font-size="14.00">s10</text>
</g>
<!-- s11 -->
<g id="node4" class="node">
<title>s11</title>
<ellipse fill="none" stroke="black" cx="64" cy="-123.8" rx="27" ry="18"/>
<text text-anchor="middle" x="64" y="-120.1" font-family="Times New Roman,serif" font-size="14.00">s11</text>
</g>
<!-- s10&#45;&gt;s11 -->
<g id="edge15" class="edge">
<title>s10&#45;&gt;s11</title>
<path fill="none" stroke="black" d="M35.11,-193C40.22,-180.93 47.21,-164.43 53.03,-150.69"/>
<polygon fill="black" stroke="black" points="56.35,-151.84 57.02,-141.26 49.9,-149.11 56.35,-151.84"/>
<text text-anchor="middle" x="52.5" y="-163.6" font-family="Times New Roman,serif" font-size="14.00">a</text>
</g>
<!-- s12 -->
<g id="node6" class="node">
<title>s12</title>
<ellipse fill="none" stroke="black" cx="64" cy="-27.4" rx="23.31" ry="23.31"/>
<ellipse fill="none" stroke="black" cx="64" cy="-27.4" rx="27.3" ry="27.3"/>
<text text-anchor="middle" x="64" y="-23.7" font-family="Times New Roman,serif" font-size="14.00">s12</text>
</g>
<!-- s11&#45;&gt;s12 -->
<g id="edge4" class="edge">
<title>s11&#45;&gt;s12</title>
<path fill="none" stroke="black" d="M64,-105.48C64,-94.2 64,-79.05 64,-65.16"/>
<polygon fill="black" stroke="black" points="67.5,-64.88 64,-54.88 60.5,-64.88 67.5,-64.88"/>
<text text-anchor="middle" x="67.5" y="-76.6" font-family="Times New Roman,serif" font-size="14.00">a</text>
</g>
<!-- s9 -->
<g id="node5" class="node">
<title>s9</title>
<ellipse fill="none" stroke="black" cx="100" cy="-210.8" rx="27" ry="18"/>
<text text-anchor="middle" x="100" y="-207.1" font-family="Times New Roman,serif" font-size="14.00">s9</text>
</g>
<!-- s9&#45;&gt;s11 -->
<g id="edge2" class="edge">
<title>s9&#45;&gt;s11</title>
<path fill="none" stroke="black" d="M92.89,-193C87.78,-180.93 80.79,-164.43 74.97,-150.69"/>
<polygon fill="black" stroke="black" points="78.1,-149.11 70.98,-141.26 71.65,-151.84 78.1,-149.11"/>
<text text-anchor="middle" x="88" y="-163.6" font-family="Times New Roman,serif" font-size="14.00">b</text>
</g>
<!-- s7 -->
<g id="node7" class="node">
<title>s7</title>
<ellipse fill="none" stroke="black" cx="27" cy="-384.8" rx="27" ry="18"/>
<text text-anchor="middle" x="27" y="-381.1" font-family="Times New Roman,serif" font-size="14.00">s7</text>
</g>
<!-- s8 -->
<g id="node12" class="node">
<title>s8</title>
<ellipse fill="none" stroke="black" cx="63" cy="-297.8" rx="27" ry="18"/>
<text text-anchor="middle" x="63" y="-294.1" font-family="Times New Roman,serif" font-size="14.00">s8</text>
</g>
<!-- s7&#45;&gt;s8 -->
<g id="edge13" class="edge">
<title>s7&#45;&gt;s8</title>
<path fill="none" stroke="black" d="M34.11,-367C39.22,-354.93 46.21,-338.43 52.03,-324.69"/>
<polygon fill="black" stroke="black" points="55.35,-325.84 56.02,-315.26 48.9,-323.11 55.35,-325.84"/>
<text text-anchor="middle" x="51.5" y="-337.6" font-family="Times New Roman,serif" font-size="14.00">a</text>
</g>
<!-- s5 -->
<g id="node8" class="node">
<title>s5</title>
<ellipse fill="none" stroke="black" cx="62" cy="-471.8" rx="27" ry="18"/>
<text text-anchor="middle" x="62" y="-468.1" font-family="Times New Roman,serif" font-size="14.00">s5</text>
</g>
<!-- s5&#45;&gt;s7 -->
<g id="edge3" class="edge">
<title>s5&#45;&gt;s7</title>
<path fill="none" stroke="black" d="M55.09,-454C50.12,-441.93 43.32,-425.43 37.66,-411.69"/>
<polygon fill="black" stroke="black" points="40.83,-410.18 33.78,-402.26 34.35,-412.84 40.83,-410.18"/>
<text text-anchor="middle" x="51" y="-424.6" font-family="Times New Roman,serif" font-size="14.00">b</text>
</g>
<!-- s6 -->
<g id="node11" class="node">
<title>s6</title>
<ellipse fill="none" stroke="black" cx="99" cy="-384.8" rx="27" ry="18"/>
<text text-anchor="middle" x="99" y="-381.1" font-family="Times New Roman,serif" font-size="14.00">s6</text>
</g>
<!-- s5&#45;&gt;s6 -->
<g id="edge16" class="edge">
<title>s5&#45;&gt;s6</title>
<path fill="none" stroke="black" d="M69.13,-454.41C74.37,-442.37 81.6,-425.78 87.63,-411.92"/>
<polygon fill="black" stroke="black" points="90.98,-412.99 91.76,-402.42 84.56,-410.2 90.98,-412.99"/>
<text text-anchor="middle" x="85.5" y="-424.6" font-family="Times New Roman,serif" font-size="14.00">a</text>
</g>
<!-- s4 -->
<g id="node9" class="node">
<title>s4</title>
<ellipse fill="none" stroke="black" cx="27" cy="-558.8" rx="27" ry="18"/>
<text text-anchor="middle" x="27" y="-555.1" font-family="Times New Roman,serif" font-size="14.00">s4</text>
</g>
<!-- s4&#45;&gt;s5 -->
<g id="edge12" class="edge">
<title>s4&#45;&gt;s5</title>
<path fill="none" stroke="black" d="M33.91,-541C38.88,-528.93 45.68,-512.43 51.34,-498.69"/>
<polygon fill="black" stroke="black" points="54.65,-499.84 55.22,-489.26 48.17,-497.18 54.65,-499.84"/>
<text text-anchor="middle" x="51" y="-511.6" font-family="Times New Roman,serif" font-size="14.00">b</text>
</g>
<!-- s2&#45;&gt;s4 -->
<g id="edge6" class="edge">
<title>s2&#45;&gt;s4</title>
<path fill="none" stroke="black" d="M55.09,-628C50.12,-615.93 43.32,-599.43 37.66,-585.69"/>
<polygon fill="black" stroke="black" points="40.83,-584.18 33.78,-576.26 34.35,-586.84 40.83,-584.18"/>
<text text-anchor="middle" x="51" y="-598.6" font-family="Times New Roman,serif" font-size="14.00">b</text>
</g>
<!-- s3 -->
<g id="node13" class="node">
<title>s3</title>
<ellipse fill="none" stroke="black" cx="99" cy="-558.8" rx="27" ry="18"/>
<text text-anchor="middle" x="99" y="-555.1" font-family="Times New Roman,serif" font-size="14.00">s3</text>
</g>
<!-- s2&#45;&gt;s3 -->
<g id="edge7" class="edge">
<title>s2&#45;&gt;s3</title>
<path fill="none" stroke="black" d="M69.13,-628.41C74.37,-616.37 81.6,-599.78 87.63,-585.92"/>
<polygon fill="black" stroke="black" points="90.98,-586.99 91.76,-576.42 84.56,-584.2 90.98,-586.99"/>
<text text-anchor="middle" x="85.5" y="-598.6" font-family="Times New Roman,serif" font-size="14.00">a</text>
</g>
<!-- s6&#45;&gt;s8 -->
<g id="edge10" class="edge">
<title>s6&#45;&gt;s8</title>
<path fill="none" stroke="black" d="M91.89,-367C86.78,-354.93 79.79,-338.43 73.97,-324.69"/>
<polygon fill="black" stroke="black" points="77.1,-323.11 69.98,-315.26 70.65,-325.84 77.1,-323.11"/>
<text text-anchor="middle" x="87" y="-337.6" font-family="Times New Roman,serif" font-size="14.00">b</text>
</g>
<!-- s8&#45;&gt;s10 -->
<g id="edge11" class="edge">
<title>s8&#45;&gt;s10</title>
<path fill="none" stroke="black" d="M56.09,-280C51.12,-267.93 44.32,-251.43 38.66,-237.69"/>
<polygon fill="black" stroke="black" points="41.83,-236.18 34.78,-228.26 35.35,-238.84 41.83,-236.18"/>
<text text-anchor="middle" x="52" y="-250.6" font-family="Times New Roman,serif" font-size="14.00">b</text>
</g>
<!-- s8&#45;&gt;s9 -->
<g id="edge14" class="edge">
<title>s8&#45;&gt;s9</title>
<path fill="none" stroke="black" d="M70.13,-280.41C75.37,-268.37 82.6,-251.78 88.63,-237.92"/>
<polygon fill="black" stroke="black" points="91.98,-238.99 92.76,-228.42 85.56,-236.2 91.98,-238.99"/>
<text text-anchor="middle" x="86.5" y="-250.6" font-family="Times New Roman,serif" font-size="14.00">a</text>
</g>
<!-- s3&#45;&gt;s5 -->
<g id="edge8" class="edge">
<title>s3&#45;&gt;s5</title>
<path fill="none" stroke="black" d="M91.87,-541.41C86.63,-529.37 79.4,-512.78 73.37,-498.92"/>
<polygon fill="black" stroke="black" points="76.44,-497.2 69.24,-489.42 70.02,-499.99 76.44,-497.2"/>
<text text-anchor="middle" x="85.5" y="-511.6" font-family="Times New Roman,serif" font-size="14.00">a</text>
</g>
</g>
</svg>
