<?xml version="1.0" encoding="UTF-8" standalone="no"?>
<!DOCTYPE svg PUBLIC "-//W3C//DTD SVG 1.1//EN"
 "http://www.w3.org/Graphics/SVG/1.1/DTD/svg11.dtd">
<!-- Generated by graphviz version 2.47.2 (20210527.0053)
 -->
<!-- Pages: 1 -->
<svg width="136pt" height="832pt"
 viewBox="0.00 0.00 136.00 831.80" xmlns="http://www.w3.org/2000/svg" xmlns:xlink="http://www.w3.org/1999/xlink">
<g id="graph0" class="graph" transform="scale(1 1) rotate(0) translate(4 827.8)">
<polygon fill="white" stroke="transparent" points="-4,4 -4,-827.8 132,-827.8 132,4 -4,4"/>
<!-- fake -->
<g id="node1" class="node">
<title>fake</title>
</g>
<!-- s1 -->
<g id="node13" class="node">
<title>s1</title>
<ellipse fill="none" stroke="black" cx="63" cy="-732.8" rx="27" ry="18"/>
<text text-anchor="middle" x="63" y="-729.1" font-family="Times New Roman,serif" font-size="14.00">s1</text>
</g>
<!-- fake&#45;&gt;s1 -->
<g id="edge1" class="edge">
<title>fake&#45;&gt;s1</title>
<path fill="none" stroke="black" stroke-width="2" d="M63,-787.61C63,-779.59 63,-769.84 63,-760.86"/>
<polygon fill="black" stroke="black" stroke-width="2" points="66.5,-760.82 63,-750.82 59.5,-760.82 66.5,-760.82"/>
</g>
<!-- s2 -->
<g id="node2" class="node">
<title>s2</title>
<ellipse fill="none" stroke="black" cx="63" cy="-645.8" rx="27" ry="18"/>
<text text-anchor="middle" x="63" y="-642.1" font-family="Times New Roman,serif" font-size="14.00">s2</text>
</g>
<!-- s3 -->
<g id="node4" class="node">
<title>s3</title>
<ellipse fill="none" stroke="black" cx="27" cy="-558.8" rx="27" ry="18"/>
<text text-anchor="middle" x="27" y="-555.1" font-family="Times New Roman,serif" font-size="14.00">s3</text>
</g>
<!-- s2&#45;&gt;s3 -->
<g id="edge14" class="edge">
<title>s2&#45;&gt;s3</title>
<path fill="none" stroke="black" d="M55.89,-628C50.78,-615.93 43.79,-599.43 37.97,-585.69"/>
<polygon fill="black" stroke="black" points="41.1,-584.11 33.98,-576.26 34.65,-586.84 41.1,-584.11"/>
<text text-anchor="middle" x="51.5" y="-598.6" font-family="Times New Roman,serif" font-size="14.00">a</text>
</g>
<!-- s4 -->
<g id="node8" class="node">
<title>s4</title>
<ellipse fill="none" stroke="black" cx="99" cy="-558.8" rx="27" ry="18"/>
<text text-anchor="middle" x="99" y="-555.1" font-family="Times New Roman,serif" font-size="14.00">s4</text>
</g>
<!-- s2&#45;&gt;s4 -->
<g id="edge13" class="edge">
<title>s2&#45;&gt;s4</title>
<path fill="none" stroke="black" d="M70.11,-628C75.22,-615.93 82.21,-599.43 88.03,-585.69"/>
<polygon fill="black" stroke="black" points="91.35,-586.84 92.02,-576.26 84.9,-584.11 91.35,-586.84"/>
<text text-anchor="middle" x="87" y="-598.6" font-family="Times New Roman,serif" font-size="14.00">b</text>
</g>
<!-- s10 -->
<g id="node3" class="node">
<title>s10</title>
<ellipse fill="none" stroke="black" cx="29" cy="-210.8" rx="27" ry="18"/>
<text text-anchor="middle" x="29" y="-207.1" font-family="Times New Roman,serif" font-size="14.00">s10</text>
</g>
<!-- s11 -->
<g id="node6" class="node">
<title>s11</title>
<ellipse fill="none" stroke="black" cx="65" cy="-123.8" rx="27" ry="18"/>
<text text-anchor="middle" x="65" y="-120.1" font-family="Times New Roman,serif" font-size="14.00">s11</text>
</g>
<!-- s10&#45;&gt;s11 -->
<g id="edge7" class="edge">
<title>s10&#45;&gt;s11</title>
<path fill="none" stroke="black" d="M36.11,-193C41.22,-180.93 48.21,-164.43 54.03,-150.69"/>
<polygon fill="black" stroke="black" points="57.35,-151.84 58.02,-141.26 50.9,-149.11 57.35,-151.84"/>
<text text-anchor="middle" x="53.5" y="-163.6" font-family="Times New Roman,serif" font-size="14.00">a</text>
</g>
<!-- s5 -->
<g id="node10" class="node">
<title>s5</title>
<ellipse fill="none" stroke="black" cx="63" cy="-471.8" rx="27" ry="18"/>
<text text-anchor="middle" x="63" y="-468.1" font-family="Times New Roman,serif" font-size="14.00">s5</text>
</g>
<!-- s3&#45;&gt;s5 -->
<g id="edge12" class="edge">
<title>s3&#45;&gt;s5</title>
<path fill="none" stroke="black" d="M34.11,-541C39.22,-528.93 46.21,-512.43 52.03,-498.69"/>
<polygon fill="black" stroke="black" points="55.35,-499.84 56.02,-489.26 48.9,-497.11 55.35,-499.84"/>
<text text-anchor="middle" x="51.5" y="-511.6" font-family="Times New Roman,serif" font-size="14.00">a</text>
</g>
<!-- s7 -->
<g id="node5" class="node">
<title>s7</title>
<ellipse fill="none" stroke="black" cx="28" cy="-384.8" rx="27" ry="18"/>
<text text-anchor="middle" x="28" y="-381.1" font-family="Times New Roman,serif" font-size="14.00">s7</text>
</g>
<!-- s8 -->
<g id="node7" class="node">
<title>s8</title>
<ellipse fill="none" stroke="black" cx="64" cy="-297.8" rx="27" ry="18"/>
<text text-anchor="middle" x="64" y="-294.1" font-family="Times New Roman,serif" font-size="14.00">s8</text>
</g>
<!-- s7&#45;&gt;s8 -->
<g id="edge15" class="edge">
<title>s7&#45;&gt;s8</title>
<path fill="none" stroke="black" d="M35.11,-367C40.22,-354.93 47.21,-338.43 53.03,-324.69"/>
<polygon fill="black" stroke="black" points="56.35,-325.84 57.02,-315.26 49.9,-323.11 56.35,-325.84"/>
<text text-anchor="middle" x="52.5" y="-337.6" font-family="Times New Roman,serif" font-size="14.00">a</text>
</g>
<!-- s12 -->
<g id="node9" class="node">
<title>s12</title>
<ellipse fill="none" stroke="black" cx="65" cy="-27.4" rx="23.31" ry="23.31"/>
<ellipse fill="none" stroke="black" cx="65" cy="-27.4" rx="27.3" ry="27.3"/>
<text text-anchor="middle" x="65" y="-23.7" font-family="Times New Roman,serif" font-size="14.00">s12</text>
</g>
<!-- s11&#45;&gt;s12 -->
<g id="edge10" class="edge">
<title>s11&#45;&gt;s12</title>
<path fill="none" stroke="black" d="M65,-105.48C65,-94.2 65,-79.05 65,-65.16"/>
<polygon fill="black" stroke="black" points="68.5,-64.88 65,-54.88 61.5,-64.88 68.5,-64.88"/>
<text text-anchor="middle" x="68.5" y="-76.6" font-family="Times New Roman,serif" font-size="14.00">a</text>
</g>
<!-- s8&#45;&gt;s10 -->
<g id="edge3" class="edge">
<title>s8&#45;&gt;s10</title>
<path fill="none" stroke="black" d="M57.09,-280C52.12,-267.93 45.32,-251.43 39.66,-237.69"/>
<polygon fill="black" stroke="black" points="42.83,-236.18 35.78,-228.26 36.35,-238.84 42.83,-236.18"/>
<text text-anchor="middle" x="53" y="-250.6" font-family="Times New Roman,serif" font-size="14.00">b</text>
</g>
<!-- s9 -->
<g id="node12" class="node">
<title>s9</title>
<ellipse fill="none" stroke="black" cx="101" cy="-210.8" rx="27" ry="18"/>
<text text-anchor="middle" x="101" y="-207.1" font-family="Times New Roman,serif" font-size="14.00">s9</text>
</g>
<!-- s8&#45;&gt;s9 -->
<g id="edge6" class="edge">
<title>s8&#45;&gt;s9</title>
<path fill="none" stroke="black" d="M71.13,-280.41C76.37,-268.37 83.6,-251.78 89.63,-237.92"/>
<polygon fill="black" stroke="black" points="92.98,-238.99 93.76,-228.42 86.56,-236.2 92.98,-238.99"/>
<text text-anchor="middle" x="87.5" y="-250.6" font-family="Times New Roman,serif" font-size="14.00">a</text>
</g>
<!-- s4&#45;&gt;s5 -->
<g id="edge4" class="edge">
<title>s4&#45;&gt;s5</title>
<path fill="none" stroke="black" d="M91.89,-541C86.78,-528.93 79.79,-512.43 73.97,-498.69"/>
<polygon fill="black" stroke="black" points="77.1,-497.11 69.98,-489.26 70.65,-499.84 77.1,-497.11"/>
<text text-anchor="middle" x="87" y="-511.6" font-family="Times New Roman,serif" font-size="14.00">b</text>
</g>
<!-- s5&#45;&gt;s7 -->
<g id="edge8" class="edge">
<title>s5&#45;&gt;s7</title>
<path fill="none" stroke="black" d="M56.09,-454C51.12,-441.93 44.32,-425.43 38.66,-411.69"/>
<polygon fill="black" stroke="black" points="41.83,-410.18 34.78,-402.26 35.35,-412.84 41.83,-410.18"/>
<text text-anchor="middle" x="52" y="-424.6" font-family="Times New Roman,serif" font-size="14.00">b</text>
</g>
<!-- s6 -->
<g id="node11" class="node">
<title>s6</title>
<ellipse fill="none" stroke="black" cx="100" cy="-384.8" rx="27" ry="18"/>
<text text-anchor="middle" x="100" y="-381.1" font-family="Times New Roman,serif" font-size="14.00">s6</text>
</g>
<!-- s5&#45;&gt;s6 -->
<g id="edge2" class="edge">
<title>s5&#45;&gt;s6</title>
<path fill="none" stroke="black" d="M70.13,-454.41C75.37,-442.37 82.6,-425.78 88.63,-411.92"/>
<polygon fill="black" stroke="black" points="91.98,-412.99 92.76,-402.42 85.56,-410.2 91.98,-412.99"/>
<text text-anchor="middle" x="86.5" y="-424.6" font-family="Times New Roman,serif" font-size="14.00">a</text>
</g>
<!-- s6&#45;&gt;s8 -->
<g id="edge11" class="edge">
<title>s6&#45;&gt;s8</title>
<path fill="none" stroke="black" d="M92.89,-367C87.78,-354.93 80.79,-338.43 74.97,-324.69"/>
<polygon fill="black" stroke="black" points="78.1,-323.11 70.98,-315.26 71.65,-325.84 78.1,-323.11"/>
<text text-anchor="middle" x="88" y="-337.6" font-family="Times New Roman,serif" font-size="14.00">b</text>
</g>
<!-- s9&#45;&gt;s11 -->
<g id="edge16" class="edge">
<title>s9&#45;&gt;s11</title>
<path fill="none" stroke="black" d="M93.89,-193C88.78,-180.93 81.79,-164.43 75.97,-150.69"/>
<polygon fill="black" stroke="black" points="79.1,-149.11 71.98,-141.26 72.65,-151.84 79.1,-149.11"/>
<text text-anchor="middle" x="89" y="-163.6" font-family="Times New Roman,serif" font-size="14.00">b</text>
</g>
<!-- s1&#45;&gt;s2 -->
<g id="edge5" class="edge">
<title>s1&#45;&gt;s2</title>
<path fill="none" stroke="black" d="M56.11,-715.35C54.04,-709.59 52.03,-703.01 51,-696.8 49.71,-689.05 50.72,-680.72 52.61,-673.12"/>
<polygon fill="black" stroke="black" points="56.02,-673.93 55.59,-663.34 49.33,-671.89 56.02,-673.93"/>
<text text-anchor="middle" x="54.5" y="-685.6" font-family="Times New Roman,serif" font-size="14.00">a</text>
</g>
<!-- s1&#45;&gt;s2 -->
<g id="edge9" class="edge">
<title>s1&#45;&gt;s2</title>
<path fill="none" stroke="black" d="M63,-714.59C63,-702.96 63,-687.34 63,-674.03"/>
<polygon fill="black" stroke="black" points="66.5,-673.97 63,-663.97 59.5,-673.97 66.5,-673.97"/>
<text text-anchor="middle" x="67" y="-685.6" font-family="Times New Roman,serif" font-size="14.00">b</text>
</g>
</g>
</svg>
