<?xml version="1.0" encoding="UTF-8" standalone="no"?>
<!DOCTYPE svg PUBLIC "-//W3C//DTD SVG 1.1//EN"
 "http://www.w3.org/Graphics/SVG/1.1/DTD/svg11.dtd">
<!-- Generated by graphviz version 2.47.2 (20210527.0053)
 -->
<!-- Pages: 1 -->
<svg width="135pt" height="832pt"
 viewBox="0.00 0.00 135.00 831.80" xmlns="http://www.w3.org/2000/svg" xmlns:xlink="http://www.w3.org/1999/xlink">
<g id="graph0" class="graph" transform="scale(1 1) rotate(0) translate(4 827.8)">
<polygon fill="white" stroke="transparent" points="-4,4 -4,-827.8 131,-827.8 131,4 -4,4"/>
<!-- fake -->
<g id="node1" class="node">
<title>fake</title>
</g>
<!-- s1 -->
<g id="node3" class="node">
<title>s1</title>
<ellipse fill="none" stroke="black" cx="64" cy="-732.8" rx="27" ry="18"/>
<text text-anchor="middle" x="64" y="-729.1" font-family="Times New Roman,serif" font-size="14.00">s1</text>
</g>
<!-- fake&#45;&gt;s1 -->
<g id="edge1" class="edge">
<title>fake&#45;&gt;s1</title>
<path fill="none" stroke="black" stroke-width="2" d="M64,-787.61C64,-779.59 64,-769.84 64,-760.86"/>
<polygon fill="black" stroke="black" stroke-width="2" points="67.5,-760.82 64,-750.82 60.5,-760.82 67.5,-760.82"/>
</g>
<!-- s3 -->
<g id="node2" class="node">
<title>s3</title>
<ellipse fill="none" stroke="black" cx="28" cy="-558.8" rx="27" ry="18"/>
<text text-anchor="middle" x="28" y="-555.1" font-family="Times New Roman,serif" font-size="14.00">s3</text>
</g>
<!-- s5 -->
<g id="node9" class="node">
<title>s5</title>
<ellipse fill="none" stroke="black" cx="64" cy="-471.8" rx="27" ry="18"/>
<text text-anchor="middle" x="64" y="-468.1" font-family="Times New Roman,serif" font-size="14.00">s5</text>
</g>
<!-- s3&#45;&gt;s5 -->
<g id="edge13" class="edge">
<title>s3&#45;&gt;s5</title>
<path fill="none" stroke="black" d="M35.11,-541C40.22,-528.93 47.21,-512.43 53.03,-498.69"/>
<polygon fill="black" stroke="black" points="56.35,-499.84 57.02,-489.26 49.9,-497.11 56.35,-499.84"/>
<text text-anchor="middle" x="52.5" y="-511.6" font-family="Times New Roman,serif" font-size="14.00">a</text>
</g>
<!-- s2 -->
<g id="node5" class="node">
<title>s2</title>
<ellipse fill="none" stroke="black" cx="64" cy="-645.8" rx="27" ry="18"/>
<text text-anchor="middle" x="64" y="-642.1" font-family="Times New Roman,serif" font-size="14.00">s2</text>
</g>
<!-- s1&#45;&gt;s2 -->
<g id="edge6" class="edge">
<title>s1&#45;&gt;s2</title>
<path fill="none" stroke="black" d="M57.11,-715.35C55.04,-709.59 53.03,-703.01 52,-696.8 50.71,-689.05 51.72,-680.72 53.61,-673.12"/>
<polygon fill="black" stroke="black" points="57.02,-673.93 56.59,-663.34 50.33,-671.89 57.02,-673.93"/>
<text text-anchor="middle" x="55.5" y="-685.6" font-family="Times New Roman,serif" font-size="14.00">a</text>
</g>
<!-- s1&#45;&gt;s2 -->
<g id="edge10" class="edge">
<title>s1&#45;&gt;s2</title>
<path fill="none" stroke="black" d="M64,-714.59C64,-702.96 64,-687.34 64,-674.03"/>
<polygon fill="black" stroke="black" points="67.5,-673.97 64,-663.97 60.5,-673.97 67.5,-673.97"/>
<text text-anchor="middle" x="68" y="-685.6" font-family="Times New Roman,serif" font-size="14.00">b</text>
</g>
<!-- s9 -->
<g id="node4" class="node">
<title>s9</title>
<ellipse fill="none" stroke="black" cx="27" cy="-210.8" rx="27" ry="18"/>
<text text-anchor="middle" x="27" y="-207.1" font-family="Times New Roman,serif" font-size="14.00">s9</text>
</g>
<!-- s11 -->
<g id="node13" class="node">
<title>s11</title>
<ellipse fill="none" stroke="black" cx="62" cy="-123.8" rx="27" ry="18"/>
<text text-anchor="middle" x="62" y="-120.1" font-family="Times New Roman,serif" font-size="14.00">s11</text>
</g>
<!-- s9&#45;&gt;s11 -->
<g id="edge15" class="edge">
<title>s9&#45;&gt;s11</title>
<path fill="none" stroke="black" d="M33.91,-193C38.88,-180.93 45.68,-164.43 51.34,-150.69"/>
<polygon fill="black" stroke="black" points="54.65,-151.84 55.22,-141.26 48.17,-149.18 54.65,-151.84"/>
<text text-anchor="middle" x="51" y="-163.6" font-family="Times New Roman,serif" font-size="14.00">b</text>
</g>
<!-- s2&#45;&gt;s3 -->
<g id="edge8" class="edge">
<title>s2&#45;&gt;s3</title>
<path fill="none" stroke="black" d="M56.89,-628C51.78,-615.93 44.79,-599.43 38.97,-585.69"/>
<polygon fill="black" stroke="black" points="42.1,-584.11 34.98,-576.26 35.65,-586.84 42.1,-584.11"/>
<text text-anchor="middle" x="52.5" y="-598.6" font-family="Times New Roman,serif" font-size="14.00">a</text>
</g>
<!-- s4 -->
<g id="node6" class="node">
<title>s4</title>
<ellipse fill="none" stroke="black" cx="100" cy="-558.8" rx="27" ry="18"/>
<text text-anchor="middle" x="100" y="-555.1" font-family="Times New Roman,serif" font-size="14.00">s4</text>
</g>
<!-- s2&#45;&gt;s4 -->
<g id="edge11" class="edge">
<title>s2&#45;&gt;s4</title>
<path fill="none" stroke="black" d="M71.11,-628C76.22,-615.93 83.21,-599.43 89.03,-585.69"/>
<polygon fill="black" stroke="black" points="92.35,-586.84 93.02,-576.26 85.9,-584.11 92.35,-586.84"/>
<text text-anchor="middle" x="88" y="-598.6" font-family="Times New Roman,serif" font-size="14.00">b</text>
</g>
<!-- s4&#45;&gt;s5 -->
<g id="edge16" class="edge">
<title>s4&#45;&gt;s5</title>
<path fill="none" stroke="black" d="M92.89,-541C87.78,-528.93 80.79,-512.43 74.97,-498.69"/>
<polygon fill="black" stroke="black" points="78.1,-497.11 70.98,-489.26 71.65,-499.84 78.1,-497.11"/>
<text text-anchor="middle" x="88" y="-511.6" font-family="Times New Roman,serif" font-size="14.00">b</text>
</g>
<!-- s10 -->
<g id="node7" class="node">
<title>s10</title>
<ellipse fill="none" stroke="black" cx="99" cy="-210.8" rx="27" ry="18"/>
<text text-anchor="middle" x="99" y="-207.1" font-family="Times New Roman,serif" font-size="14.00">s10</text>
</g>
<!-- s10&#45;&gt;s11 -->
<g id="edge2" class="edge">
<title>s10&#45;&gt;s11</title>
<path fill="none" stroke="black" d="M91.87,-193.41C86.63,-181.37 79.4,-164.78 73.37,-150.92"/>
<polygon fill="black" stroke="black" points="76.44,-149.2 69.24,-141.42 70.02,-151.99 76.44,-149.2"/>
<text text-anchor="middle" x="85.5" y="-163.6" font-family="Times New Roman,serif" font-size="14.00">a</text>
</g>
<!-- s8 -->
<g id="node8" class="node">
<title>s8</title>
<ellipse fill="none" stroke="black" cx="63" cy="-297.8" rx="27" ry="18"/>
<text text-anchor="middle" x="63" y="-294.1" font-family="Times New Roman,serif" font-size="14.00">s8</text>
</g>
<!-- s8&#45;&gt;s9 -->
<g id="edge3" class="edge">
<title>s8&#45;&gt;s9</title>
<path fill="none" stroke="black" d="M55.89,-280C50.78,-267.93 43.79,-251.43 37.97,-237.69"/>
<polygon fill="black" stroke="black" points="41.1,-236.11 33.98,-228.26 34.65,-238.84 41.1,-236.11"/>
<text text-anchor="middle" x="51.5" y="-250.6" font-family="Times New Roman,serif" font-size="14.00">a</text>
</g>
<!-- s8&#45;&gt;s10 -->
<g id="edge7" class="edge">
<title>s8&#45;&gt;s10</title>
<path fill="none" stroke="black" d="M70.11,-280C75.22,-267.93 82.21,-251.43 88.03,-237.69"/>
<polygon fill="black" stroke="black" points="91.35,-238.84 92.02,-228.26 84.9,-236.11 91.35,-238.84"/>
<text text-anchor="middle" x="87" y="-250.6" font-family="Times New Roman,serif" font-size="14.00">b</text>
</g>
<!-- s6 -->
<g id="node10" class="node">
<title>s6</title>
<ellipse fill="none" stroke="black" cx="28" cy="-384.8" rx="27" ry="18"/>
<text text-anchor="middle" x="28" y="-381.1" font-family="Times New Roman,serif" font-size="14.00">s6</text>
</g>
<!-- s5&#45;&gt;s6 -->
<g id="edge9" class="edge">
<title>s5&#45;&gt;s6</title>
<path fill="none" stroke="black" d="M56.89,-454C51.78,-441.93 44.79,-425.43 38.97,-411.69"/>
<polygon fill="black" stroke="black" points="42.1,-410.11 34.98,-402.26 35.65,-412.84 42.1,-410.11"/>
<text text-anchor="middle" x="52.5" y="-424.6" font-family="Times New Roman,serif" font-size="14.00">a</text>
</g>
<!-- s7 -->
<g id="node11" class="node">
<title>s7</title>
<ellipse fill="none" stroke="black" cx="100" cy="-384.8" rx="27" ry="18"/>
<text text-anchor="middle" x="100" y="-381.1" font-family="Times New Roman,serif" font-size="14.00">s7</text>
</g>
<!-- s5&#45;&gt;s7 -->
<g id="edge4" class="edge">
<title>s5&#45;&gt;s7</title>
<path fill="none" stroke="black" d="M71.11,-454C76.22,-441.93 83.21,-425.43 89.03,-411.69"/>
<polygon fill="black" stroke="black" points="92.35,-412.84 93.02,-402.26 85.9,-410.11 92.35,-412.84"/>
<text text-anchor="middle" x="88" y="-424.6" font-family="Times New Roman,serif" font-size="14.00">b</text>
</g>
<!-- s6&#45;&gt;s8 -->
<g id="edge12" class="edge">
<title>s6&#45;&gt;s8</title>
<path fill="none" stroke="black" d="M34.91,-367C39.88,-354.93 46.68,-338.43 52.34,-324.69"/>
<polygon fill="black" stroke="black" points="55.65,-325.84 56.22,-315.26 49.17,-323.18 55.65,-325.84"/>
<text text-anchor="middle" x="52" y="-337.6" font-family="Times New Roman,serif" font-size="14.00">b</text>
</g>
<!-- s7&#45;&gt;s8 -->
<g id="edge14" class="edge">
<title>s7&#45;&gt;s8</title>
<path fill="none" stroke="black" d="M92.87,-367.41C87.63,-355.37 80.4,-338.78 74.37,-324.92"/>
<polygon fill="black" stroke="black" points="77.44,-323.2 70.24,-315.42 71.02,-325.99 77.44,-323.2"/>
<text text-anchor="middle" x="86.5" y="-337.6" font-family="Times New Roman,serif" font-size="14.00">a</text>
</g>
<!-- s12 -->
<g id="node12" class="node">
<title>s12</title>
<ellipse fill="none" stroke="black" cx="62" cy="-27.4" rx="23.31" ry="23.31"/>
<ellipse fill="none" stroke="black" cx="62" cy="-27.4" rx="27.3" ry="27.3"/>
<text text-anchor="middle" x="62" y="-23.7" font-family="Times New Roman,serif" font-size="14.00">s12</text>
</g>
<!-- s11&#45;&gt;s12 -->
<g id="edge5" class="edge">
<title>s11&#45;&gt;s12</title>
<path fill="none" stroke="black" d="M62,-105.48C62,-94.2 62,-79.05 62,-65.16"/>
<polygon fill="black" stroke="black" points="65.5,-64.88 62,-54.88 58.5,-64.88 65.5,-64.88"/>
<text text-anchor="middle" x="65.5" y="-76.6" font-family="Times New Roman,serif" font-size="14.00">a</text>
</g>
</g>
</svg>
